<?xml version="1.0" standalone="no"?>
<!DOCTYPE svg PUBLIC "-//W3C//DTD SVG 20010904//EN"
 "http://www.w3.org/TR/2001/REC-SVG-20010904/DTD/svg10.dtd">
<svg version="1.0" xmlns="http://www.w3.org/2000/svg"
 width="1280.000000pt" height="1078.000000pt" viewBox="0 0 1280.000000 1078.000000"
 preserveAspectRatio="xMidYMid meet">
<g transform="translate(0.000000,1078.000000) scale(0.100000,-0.100000)"
fill="#000000" stroke="none">
<path d="M6920 10768 c-277 -47 -390 -81 -550 -164 -263 -137 -620 -446 -996
-864 -175 -194 -260 -300 -348 -434 -41 -61 -86 -122 -100 -135 -36 -34 -99
-37 -307 -15 -158 17 -259 19 -1124 18 -923 -2 -1144 -7 -1590 -39 -325 -23
-936 -40 -1415 -40 -400 0 -438 -1 -463 -18 -15 -9 -27 -24 -27 -33 0 -34 84
-169 268 -429 347 -490 652 -796 1007 -1008 61 -36 124 -81 142 -99 18 -18 84
-132 149 -253 273 -517 536 -975 688 -1200 304 -452 710 -882 1032 -1091 127
-83 214 -127 439 -219 341 -140 526 -203 695 -235 281 -54 764 -54 1385 1 286
25 551 27 596 4 66 -35 85 -147 53 -316 -22 -118 -136 -456 -192 -568 -74
-149 -194 -267 -359 -350 -118 -59 -427 -169 -580 -206 -72 -17 -73 -17 -118
5 -62 30 -115 24 -236 -28 -114 -50 -213 -72 -316 -72 -50 0 -82 -5 -92 -14
-9 -7 -106 -36 -216 -64 -252 -63 -290 -71 -408 -81 -140 -12 -196 -42 -324
-174 -189 -194 -289 -302 -344 -372 -102 -130 -355 -499 -400 -585 -25 -47
-78 -137 -118 -199 -95 -147 -138 -240 -157 -337 -9 -43 -43 -145 -75 -226
-33 -81 -84 -218 -114 -304 -67 -191 -102 -271 -176 -394 -44 -74 -99 -199
-99 -227 0 -1 2027 -3 4505 -3 l4505 0 5 23 c19 84 150 936 182 1182 23 189
25 220 15 310 -26 233 -114 435 -289 664 -18 24 -33 48 -33 52 0 5 35 31 78
59 43 27 87 59 97 69 17 19 16 20 -11 26 -129 29 -200 65 -328 167 -82 66
-261 249 -407 418 -129 149 -301 320 -388 386 -107 80 -191 121 -286 141 -72
14 -76 14 -119 -6 -29 -15 -61 -44 -97 -91 -30 -38 -59 -69 -65 -69 -21 -2
-204 204 -279 314 -63 93 -130 231 -160 330 -49 167 -155 574 -171 660 -23
120 -22 282 0 359 46 155 107 233 261 334 304 198 1112 770 1251 884 125 103
514 494 795 798 249 271 689 764 684 768 -1 2 -53 16 -115 32 -199 53 -412
132 -608 226 -62 30 -117 54 -123 54 -6 0 58 -72 143 -161 84 -88 155 -165
156 -170 9 -24 -32 -4 -96 46 -73 57 -184 178 -230 253 -15 24 -38 46 -52 50
-38 11 -394 7 -580 -7 -726 -53 -1920 -206 -3391 -435 -298 -47 -529 -78 -541
-74 -20 7 384 77 1977 342 2355 393 3777 621 3915 628 54 3 55 3 55 -24 -1
-16 0 -28 1 -28 9 0 350 808 390 924 29 84 29 97 5 161 -49 130 -169 197 -461
256 -99 20 -145 23 -325 24 -205 0 -214 -1 -390 -38 -525 -110 -672 -172
-1020 -431 -310 -231 -426 -371 -490 -593 -14 -48 -33 -95 -41 -103 -14 -13
-17 -13 -30 5 -8 11 -24 51 -35 90 -105 367 -206 524 -568 886 -302 302 -630
535 -1026 729 -376 185 -666 273 -1098 335 -177 26 -282 29 -377 13z m5315
-1028 c82 -11 168 -25 190 -31 54 -15 169 -76 192 -101 16 -18 13 -18 -33 5
-100 51 -175 69 -359 88 -232 24 -421 24 -610 0 -612 -78 -1033 -361 -1295
-873 -28 -54 -53 -98 -55 -98 -12 0 34 118 80 208 282 543 858 847 1565 826
96 -3 242 -14 325 -24z m-12 -274 c125 -25 105 -36 -65 -36 -440 0 -790 -111
-1144 -362 -89 -63 -158 -122 -276 -237 -46 -44 -78 -69 -78 -60 0 29 125 183
230 282 165 157 365 280 580 355 85 30 255 68 340 76 80 7 343 -4 413 -18z
m-775 2 c-2 -7 -57 -40 -123 -73 -331 -165 -574 -326 -758 -504 -48 -46 -90
-81 -94 -77 -11 11 37 90 103 169 168 200 455 380 739 463 124 37 138 39 133
22z m843 -199 c21 -12 5 -15 -141 -25 -252 -18 -426 -52 -610 -121 -174 -65
-372 -173 -502 -275 -21 -17 -44 -27 -50 -25 -20 8 126 142 233 213 199 133
432 217 689 248 77 9 357 -2 381 -15z m-210 -196 c15 -15 -6 -20 -121 -28
-123 -9 -289 -39 -387 -70 -42 -13 -79 -22 -81 -20 -9 9 13 27 66 54 71 35
115 50 206 67 83 16 300 14 317 -3z m-9868 -109 c97 -91 384 -321 511 -412
610 -431 1335 -705 2133 -807 220 -28 679 -54 943 -55 168 0 217 -9 169 -29
-38 -17 -451 -117 -594 -145 -662 -127 -1453 -162 -2035 -90 -814 101 -1467
414 -1908 916 -108 123 -482 596 -482 609 0 6 6 6 14 2 15 -9 327 -346 513
-554 313 -352 659 -576 1138 -739 105 -36 186 -58 175 -48 -3 3 -63 27 -135
53 -258 93 -548 251 -768 417 -145 109 -376 352 -595 625 -188 235 -230 294
-184 261 10 -7 100 -101 201 -208 403 -429 486 -513 584 -592 248 -199 546
-358 887 -471 162 -54 190 -53 45 1 -577 216 -930 471 -1346 972 -338 407
-319 408 71 4 168 -173 334 -341 370 -373 284 -252 678 -464 1088 -586 65 -19
123 -35 128 -34 5 0 -52 22 -126 48 -500 177 -917 440 -1215 765 -203 223
-424 491 -413 502 3 3 149 -138 324 -313 176 -175 357 -349 404 -387 188 -150
433 -297 670 -401 108 -48 428 -158 490 -169 19 -4 -21 13 -90 37 -447 156
-814 367 -1130 649 -138 124 -520 557 -520 591 0 6 46 -33 103 -89 485 -475
531 -516 709 -647 254 -187 617 -364 962 -467 152 -46 196 -50 58 -6 -436 141
-839 367 -1180 660 -141 121 -502 519 -502 554 0 12 124 -101 415 -379 380
-363 790 -604 1315 -775 172 -56 202 -56 45 0 -428 152 -796 358 -1130 631
-186 153 -536 535 -489 535 3 0 56 -48 117 -108 120 -115 302 -277 426 -380
320 -265 724 -485 1149 -627 151 -50 208 -58 75 -10 -540 193 -1042 500 -1383
844 -129 131 -255 279 -245 289 3 3 22 -10 43 -29 154 -144 206 -190 355 -314
354 -295 669 -487 1052 -645 150 -61 413 -152 428 -147 5 1 -44 23 -109 47
-541 198 -1081 521 -1399 836 -96 94 -225 241 -225 256 0 16 13 7 93 -68z
m-1801 -292 c306 -456 712 -830 1168 -1076 196 -106 141 -103 -75 4 -435 215
-850 603 -1102 1031 -88 149 -82 176 9 41z m416 -340 c280 -297 580 -535 901
-717 105 -59 324 -158 431 -194 36 -12 72 -26 80 -32 30 -22 -83 1 -188 37
-380 131 -729 355 -1060 678 -177 173 -363 389 -401 466 -13 26 -5 18 237
-238z m272 -172 c263 -223 515 -401 708 -499 31 -16 66 -37 77 -46 42 -34 -48
-6 -172 55 -145 71 -350 207 -488 323 -113 96 -275 258 -275 276 0 17 11 10
150 -109z m9790 -197 c154 -132 367 -339 358 -349 -25 -24 -508 406 -508 452
0 22 22 7 150 -103z m-9290 -64 c230 -159 256 -179 224 -179 -54 1 -286 149
-406 259 -56 52 -69 71 -47 71 6 0 109 -68 229 -151z m8467 50 c43 -21 103
-83 103 -106 0 -20 -55 -16 -99 6 -42 22 -101 84 -101 106 0 22 46 19 97 -6z
m751 -118 c179 -168 306 -300 298 -308 -3 -4 -37 14 -74 40 -95 65 -381 357
-382 390 0 21 33 -5 158 -122z m-1 -224 c233 -230 282 -298 137 -189 -115 87
-384 371 -384 405 0 23 46 -17 247 -216z m-822 189 c61 -28 108 -67 146 -120
48 -65 33 -121 -19 -74 -15 13 -53 44 -85 68 -64 48 -127 116 -127 137 0 19
29 16 85 -11z m651 -248 c126 -129 304 -329 304 -342 0 -42 -240 187 -378 362
-45 57 -82 105 -82 108 0 22 46 -16 156 -128z m-704 91 c80 -41 177 -161 178
-221 0 -34 -31 -17 -111 60 -79 74 -139 149 -139 171 0 17 27 13 72 -10z m620
-181 c106 -109 301 -336 331 -388 21 -35 11 -39 -27 -9 -71 56 -426 465 -426
491 0 22 30 -1 122 -94z m-655 -2 c104 -49 198 -167 191 -239 -2 -18 -5 -32
-8 -32 -3 0 -63 59 -133 132 -154 159 -166 193 -50 139z m-8235 -28 c8 -13 22
-45 32 -73 35 -96 169 -391 247 -545 208 -413 464 -809 728 -1125 100 -120
375 -394 481 -478 47 -37 133 -102 192 -144 60 -42 106 -78 103 -81 -7 -8
-126 62 -230 136 -492 347 -958 908 -1360 1637 -96 172 -222 430 -275 562 -32
79 -33 82 -16 107 22 35 77 36 98 4z m8759 -85 c99 -93 155 -153 216 -235 62
-83 141 -233 129 -245 -4 -4 -16 3 -25 17 -45 69 -201 269 -300 385 -61 72
-111 133 -111 138 0 18 22 3 91 -60z m-8538 5 c9 -7 39 -71 68 -143 70 -177
237 -518 344 -700 432 -736 993 -1297 1606 -1605 126 -64 463 -190 475 -178 1
2 -63 31 -144 66 -751 317 -1463 1017 -2029 1997 -123 212 -245 464 -237 489
13 45 71 62 99 29 8 -10 44 -81 80 -158 164 -351 390 -728 631 -1051 467 -626
978 -1057 1534 -1293 242 -103 456 -156 810 -201 45 -6 9 -8 -120 -5 -455 8
-910 133 -1309 357 -645 364 -1221 988 -1654 1795 -118 219 -247 509 -247 555
0 47 55 74 93 46z m2781 -41 c19 -26 19 -30 5 -55 -23 -42 -51 -40 -77 7 -19
33 -21 44 -12 61 16 29 57 23 84 -13z m-322 -64 c23 -32 61 -82 85 -112 l44
-54 -22 -23 c-13 -13 -30 -24 -39 -24 -16 0 -116 120 -158 190 -19 31 -21 43
-12 59 20 39 55 26 102 -36z m183 0 c49 -64 53 -77 28 -105 -20 -23 -42 -23
-59 0 -69 89 -86 120 -75 141 21 39 56 27 106 -36z m-2261 25 c13 -13 41 -61
61 -108 87 -202 287 -557 443 -785 196 -288 361 -485 606 -731 446 -445 871
-713 1416 -895 216 -72 233 -89 40 -40 -246 63 -539 187 -800 341 -702 414
-1361 1154 -1791 2011 -74 149 -83 188 -47 213 30 21 42 20 72 -6z m7617 -17
c30 -21 69 -60 88 -86 59 -82 99 -203 73 -219 -32 -20 -222 229 -238 313 -9
42 9 41 77 -8z m-7158 18 c17 -8 36 -37 62 -98 142 -332 405 -741 686 -1066
121 -140 372 -382 514 -496 147 -118 415 -302 415 -286 0 2 -33 26 -72 52
-475 315 -916 776 -1240 1295 -147 235 -284 514 -273 551 4 11 18 27 31 36 46
29 67 8 138 -142 88 -183 148 -289 282 -490 288 -435 656 -818 1049 -1090 176
-121 194 -125 30 -5 -367 268 -711 618 -975 990 -160 225 -380 617 -380 676 0
26 32 64 54 64 35 0 51 -21 116 -150 145 -290 322 -557 535 -810 206 -243 499
-516 715 -664 64 -44 51 -33 -130 117 -422 350 -826 846 -1052 1294 l-72 143
20 27 c12 16 31 29 43 31 23 4 71 -32 71 -52 0 -6 38 -80 85 -164 255 -460
578 -844 1028 -1220 9 -9 17 -13 17 -11 0 3 -60 60 -134 128 -220 202 -458
470 -633 716 -142 199 -313 491 -313 534 0 53 68 82 102 44 9 -10 30 -46 46
-79 47 -94 166 -288 245 -399 279 -394 620 -745 1005 -1032 133 -99 152 -118
152 -142 0 -27 -23 -101 -51 -166 -17 -41 -37 -165 -27 -171 4 -3 8 -12 8 -21
0 -8 11 -37 25 -65 14 -27 25 -55 26 -61 1 -20 117 -115 173 -142 64 -31 635
-147 709 -143 50 2 67 -9 67 -43 0 -18 -25 -42 -54 -53 -22 -8 -194 22 -362
63 -511 126 -962 338 -1379 651 -526 394 -961 918 -1269 1530 -136 271 -142
303 -59 329 1 1 13 -4 26 -10z m-174 -13 c21 -11 37 -37 66 -108 121 -291 371
-705 599 -992 629 -790 1436 -1281 2364 -1437 66 -11 92 -22 79 -35 -17 -17
-162 -46 -267 -54 -120 -8 -129 -8 -238 20 -562 146 -1175 499 -1643 948 -423
404 -820 972 -1038 1484 -46 107 -46 134 -4 168 31 24 45 25 82 6z m1233 2 c8
-7 42 -56 75 -108 180 -291 442 -611 676 -826 40 -37 82 -77 94 -88 20 -19 22
-25 12 -59 -5 -20 -15 -37 -22 -37 -18 0 -210 174 -316 286 -164 174 -376 450
-511 664 -80 127 -82 132 -64 159 17 24 33 26 56 9z m205 -28 c16 -22 53 -81
83 -131 130 -216 377 -503 572 -666 63 -52 78 -70 78 -93 0 -15 -7 -33 -15
-40 -19 -16 -56 9 -191 129 -213 189 -479 523 -588 738 -30 61 -31 66 -10 87
24 25 42 19 71 -24z m155 28 c8 -7 34 -41 56 -74 23 -34 69 -96 103 -139 61
-77 61 -78 50 -116 -6 -21 -16 -41 -21 -44 -10 -6 -96 96 -183 218 -80 111
-85 122 -62 147 21 23 35 25 57 8z m-486 -125 c292 -449 702 -929 992 -1162
46 -38 51 -54 23 -90 l-19 -25 -58 45 c-152 116 -440 418 -635 665 -193 243
-429 581 -429 613 0 24 20 41 46 41 17 0 36 -21 80 -87z m6698 11 c124 -105
246 -354 237 -483 -2 -27 -18 1 -56 99 -46 115 -91 198 -167 311 -73 108 -76
125 -14 73z m-534 -109 c68 -40 143 -135 165 -207 24 -82 17 -172 -13 -154
-13 8 -188 254 -231 325 -54 89 -29 101 79 36z m507 -118 c87 -129 128 -311
104 -456 -19 -116 -31 -98 -42 61 -10 157 -36 257 -106 416 -11 26 23 10 44
-21z m-650 -16 c181 -142 250 -367 169 -548 -27 -59 -99 -143 -112 -130 -4 3
1 44 11 91 36 172 9 315 -96 513 -27 50 -49 96 -49 102 0 21 29 11 77 -28z
m582 -215 c31 -169 -13 -393 -90 -462 -26 -22 -27 -32 16 126 21 74 28 126 31
240 3 80 8 151 10 159 8 25 22 -2 33 -63z m-627 -123 c40 -90 0 -207 -90 -264
-47 -30 -82 -38 -82 -18 0 6 14 30 30 55 47 67 78 142 86 203 10 89 25 95 56
24z m179 -487 c-19 -23 -196 -157 -333 -252 -114 -79 -149 -97 -117 -58 21 26
269 210 413 308 40 27 58 28 37 2z m-1 -75 c0 -28 -569 -451 -606 -451 -19 0
45 51 291 235 235 176 302 223 313 225 1 0 2 -4 2 -9z m14 -82 c-102 -109
-567 -439 -617 -439 -18 0 7 21 105 88 57 39 198 140 313 226 116 86 214 156
219 156 6 0 -3 -14 -20 -31z"/>
<path d="M2975 7640 c11 -5 27 -9 35 -9 9 0 8 4 -5 9 -11 5 -27 9 -35 9 -9 0
-8 -4 5 -9z"/>
<path d="M2808 7603 c7 -3 16 -2 19 1 4 3 -2 6 -13 5 -11 0 -14 -3 -6 -6z"/>
</g>
</svg>
